<?xml version="1.0" encoding="UTF-8"?>
<svg xmlns="http://www.w3.org/2000/svg" version="1.1" viewBox="0 0 502 94">
  <defs>
    <style>
      .cls-1 {
        fill: #fff;
      }

      .cls-2 {
        fill: #fefefe;
      }
    </style>
  </defs>
  <!-- Generator: Adobe Illustrator 28.7.1, SVG Export Plug-In . SVG Version: 1.2.0 Build 142)  -->
  <g>
    <g id="Layer_1">
      <polygon class="cls-1" points="137.72 7 137.72 83 61 7 94.71 7 116 29 116 7 137.72 7"/>
      <polygon class="cls-1" points="82.85 83 49.1 83 26.6 60.5 26.6 83 7.14 83 7.14 7 82.85 83"/>
      <polygon class="cls-1" points="124 83 96 83 20 7 48 7 124 83"/>
      <g>
        <polygon class="cls-2" points="225.75 72.97 225.75 83.09 177 83.09 177 7.19 187.65 7.19 187.65 72.97 225.75 72.97"/>
        <path class="cls-2" d="M280.51,28.91v54.18h-10.59v-7.14c-1.01,1.83-2.47,3.51-4.39,5.03-2.44,1.93-5.62,2.9-9.55,2.9-5.99,0-10.61-1.93-13.86-5.77-3.26-3.85-4.88-9.27-4.88-16.26V28.91h10.65v32.94c0,3.79.96,6.72,2.89,8.79,1.93,2.07,4.66,3.11,8.17,3.11s6.22-.93,8.12-2.79c1.9-1.87,2.85-4.48,2.85-7.86V28.91h10.59Z"/>
        <polygon class="cls-2" points="340.23 83.09 328.43 83.09 316.12 64.35 303.27 83.09 291.47 83.09 310.31 55.57 292.31 28.91 304.16 28.91 316.07 47.5 327.54 28.91 339.39 28.91 321.61 55.96 340.23 83.09"/>
        <path class="cls-2" d="M371.18,83.88c-7.1,0-12.6-2.06-16.49-6.19-3.9-4.12-5.85-9.93-5.85-17.41v-8.82c0-7.41,1.95-13.15,5.85-17.23,3.9-4.07,9.4-6.11,16.49-6.11s12.6,2.04,16.5,6.11c3.9,4.07,5.85,9.81,5.85,17.23v8.98c0,7.45-1.95,13.22-5.85,17.3-3.9,4.09-9.4,6.13-16.5,6.13ZM371.18,73.75c3.72,0,6.6-1.17,8.64-3.5,2.04-2.33,3.05-5.6,3.05-9.81v-8.98c0-4.21-1.02-7.46-3.05-9.76-2.04-2.3-4.92-3.45-8.64-3.45s-6.56,1.15-8.61,3.45c-2.05,2.3-3.08,5.55-3.08,9.76v8.98c0,4.21,1.03,7.48,3.08,9.81,2.05,2.33,4.92,3.5,8.61,3.5Z"/>
        <path class="cls-2" d="M445.41,32.35l-6.94,9.4c-.94-1.15-2.13-2.02-3.55-2.61-1.43-.59-3.08-.89-4.96-.89-3.38,0-6,.93-7.86,2.8-1.86,1.86-2.79,4.44-2.79,7.75v34.29h-10.65V28.91h10.65v7.55c1.45-2.31,3.24-4.18,5.35-5.62,2.66-1.81,5.59-2.71,8.8-2.71,2.47,0,4.7.35,6.7,1.07,2.01.71,3.75,1.76,5.25,3.15Z"/>
        <path class="cls-2" d="M489.41,33.4c-3.72-3.52-8.97-5.27-15.76-5.27-4.11,0-7.84.68-11.2,2.06-3.35,1.37-6.06,3.3-8.11,5.77l7.77,5.32c1.64-1.22,3.49-2.15,5.56-2.79,2.07-.65,4.17-.97,6.29-.97,3.48,0,6.17.99,8.07,2.95,1.9,1.97,2.84,4.73,2.84,8.27v2.3h-14.93c-6.09,0-10.65,1.33-13.7,4-3.04,2.66-4.57,6.69-4.57,12.08,0,5.67,1.67,9.88,4.99,12.63,3.32,2.75,8.31,4.13,14.95,4.13,2.27,0,4.29-.24,6.09-.71,1.79-.47,3.38-1.17,4.77-2.11.89-.6,1.69-1.31,2.4-2.13v4.16h10.13v-34.81c0-6.41-1.86-11.37-5.59-14.88ZM484.87,69.83c0,1.85-1.01,3.21-3.02,4.07-2.02.88-5.05,1.31-9.09,1.31-3.69,0-6.45-.66-8.3-1.98-1.84-1.33-2.76-3.36-2.76-6.11,0-2.54.69-4.43,2.08-5.66,1.4-1.24,3.47-1.86,6.22-1.86h14.87v10.23Z"/>
      </g>
    </g>
  </g>
</svg>